<svg xmlns="http://www.w3.org/2000/svg" width="1200" height="675" viewBox="0 0 1200 675">
  <rect width="1200" height="675" fill="#f5f7fb"/>
  <rect x="40" y="40" width="520" height="595" rx="16" fill="#cfe3ff" stroke="#2d5aa6" stroke-width="4"/>
  <rect x="90" y="120" width="420" height="120" rx="12" fill="#4a79d9"/>
  <rect x="90" y="270" width="420" height="120" rx="12" fill="#4a79d9"/>
  <rect x="90" y="420" width="420" height="120" rx="12" fill="#4a79d9"/>
  <text x="100" y="90" font-size="32" font-family="sans-serif" fill="#1a2b4a">ブラウザ(可視化)</text>
  <text x="120" y="180" font-size="28" font-family="sans-serif" fill="#ffffff">箱庭ドローン Map Viewer</text>
  <text x="120" y="215" font-size="22" font-family="sans-serif" fill="#ffffff">(leaflet)</text>
  <text x="120" y="330" font-size="28" font-family="sans-serif" fill="#ffffff">箱庭ドローン 3D Viewer</text>
  <text x="120" y="365" font-size="22" font-family="sans-serif" fill="#ffffff">(three.js)</text>
  <text x="120" y="480" font-size="28" font-family="sans-serif" fill="#ffffff">箱庭Webクライアント</text>
  <text x="120" y="515" font-size="22" font-family="sans-serif" fill="#ffffff">(JavaScript)</text>
  <rect x="640" y="80" width="520" height="555" rx="16" fill="#d9f2d9" stroke="#2f6b2f" stroke-width="4"/>
  <text x="670" y="140" font-size="28" font-family="sans-serif" fill="#245024">箱庭ドローンシミュレーション環境</text>
  <rect x="700" y="210" width="400" height="120" rx="12" fill="#a9d8a9"/>
  <rect x="700" y="370" width="400" height="120" rx="12" fill="#a9d8a9"/>
  <text x="730" y="280" font-size="26" font-family="sans-serif" fill="#245024">箱庭Webサーバー</text>
  <text x="730" y="315" font-size="22" font-family="sans-serif" fill="#245024">(Python)</text>
  <text x="730" y="440" font-size="26" font-family="sans-serif" fill="#245024">箱庭ドローンEngine</text>
  <text x="730" y="475" font-size="22" font-family="sans-serif" fill="#245024">(C++)</text>
  <line x1="560" y1="340" x2="640" y2="340" stroke="#2d5aa6" stroke-width="4"/>
  <polygon points="640,340 628,332 628,348" fill="#2d5aa6"/>
</svg>
